<svg height="800" width="800" xmlns="http://www.w3.org/2000/svg" viewBox="0 0 496 496" xml:space="preserve"><path d="M440 384c-17.112 0-32.84 7.608-43.416 20.68-4-1.92-8.232-3.264-12.592-4.008.008-.224.008-.448.008-.672 0-13.536-4.312-26.664-12.256-37.568C379.784 349.68 384 335.136 384 320c0-38.536-27.8-71.336-64.832-78.48.032-.184.016-.368.048-.552.472-2.928.784-5.912.784-8.968 0-2.024-.12-4.024-.328-5.992-.04-.336-.112-.672-.152-1.016a53.895 53.895 0 0 0-.832-4.96c-.016-.064-.016-.136-.032-.2C343.368 210.568 360 187.04 360 160c0-18.04-7.424-34.824-20.552-46.92A71.129 71.129 0 0 0 344 88c0-39.704-32.296-72-72-72a71.64 71.64 0 0 0-34.152 8.656c-12.384-7.872-27.632-10.544-42.12-7.288C183.904 6.272 168.224 0 152 0c-35.288 0-64 28.712-64 64 0 14.728 5.176 28.76 14.184 40H88v16h16v141.816L6.352 427.064A45.719 45.719 0 0 0 0 450.304C0 475.504 20.504 496 45.696 496h228.608c20.496 0 37.88-13.56 43.656-32.184.688.024 1.36.144 2.04.144v.04c.128 0 .248-.016.376-.016.232 0 .464-.024.696-.032 3-.048 5.944-.328 8.832-.768.232-.04.48-.024.712-.064C337.024 482.36 355.224 496 376 496c11.168 0 21.912-3.984 30.488-11.128C416.12 492.096 427.768 496 440 496c30.872 0 56-25.128 56-56s-25.128-56-56-56zM120 266.184V120h80v136.64c-27.088 3.904-48 27.208-48 55.36 0 2.72.264 5.376.64 8H88.2l31.8-53.816zM274.304 480H45.696C29.32 480 16 466.68 16 450.304a29.768 29.768 0 0 1 4.136-15.112L78.744 336h78.736c9.008 18.888 28.24 32 50.52 32 .264 0 .528 0 .808-.008C212.512 386.232 228.68 400 248 400c9.736 0 18.544-3.632 25.488-9.432l26.376 44.624A29.768 29.768 0 0 1 304 450.304C304 466.68 290.68 480 274.304 480zm55.256-32.992c-.256.048-.512.12-.768.168-2.528.464-5.144.672-7.792.728-.384.008-.768.024-1.152.024-.384-7.336-2.44-14.512-6.192-20.872L284.064 377c2.456-5.176 3.936-10.896 3.936-17h-16c0 13.232-10.768 24-24 24s-24-10.768-24.048-23.216l.12-11.016-9.36 1.616c-2.408.416-4.6.616-6.712.616-22.056 0-40-17.944-40-40s17.944-40 40-40 40 17.944 40 40h16c0-28.152-20.912-51.456-48-55.36V120h16v-16H201.824C210.832 92.8 216 78.816 216 64h-16c0 16.144-8.04 31.064-21.488 40h-54.36l.416-.6C111.688 94.408 104 79.68 104 64c0-26.472 21.528-48 48-48 13.4 0 26.312 5.72 35.424 15.696l3.464 3.8 4.888-1.568c12.568-4.024 26.392-1.552 36.776 6.544l1.168.912C242.792 49.016 248 60.152 248 72h16c0-13.224-4.688-25.784-13-35.76 6.664-2.72 13.752-4.24 21-4.24 30.872 0 56 25.128 56 56 0 8.28-1.832 16.344-5.456 23.976l-.088.192C313.168 131.52 293.52 144 272 144v16c24.16 0 46.472-12.248 59.712-31.904C339.568 136.816 344 148.024 344 160c0 20.288-12.552 37.832-31.112 44.768C303.304 187.632 284.992 176 264 176v16c16.488 0 30.672 10.04 36.784 24.32l.136.352c.472 1.144.736 2.376 1.112 3.568.424 1.376.92 2.736 1.2 4.136.48 2.472.768 5.016.768 7.624 0 2.504-.296 4.928-.736 7.304-.232 1.224-.624 2.432-.976 3.648C297.488 259.664 282.232 272 264 272v16c21.928 0 40.896-12.704 50.088-31.104C344.728 261.776 368 288.472 368 320c0 13.76-4.368 26.904-12.632 38.048l-.208.288C343.096 374.4 324.12 384 304 384v16c21.712 0 42.328-8.968 57.28-24.312 4.344 7.344 6.72 15.704 6.72 24.312 0 1.784-.168 3.728-.448 5.936-2.56 20.8-18.048 37.072-37.992 41.072zM440 480c-10.64 0-20.656-4.144-28.208-11.648l-6.088-6.056-5.608 6.504C393.944 475.912 385.168 480 376 480c-13.672 0-25.64-8.912-30.024-21.52 17.432-7.704 30.784-22.936 35.808-41.912a31.957 31.957 0 0 1 12.528 5.256l.872.608C403.208 428.472 408 437.936 408 448h16c0-12.88-5.256-25.072-14.248-34.008C417.288 405.16 428.16 400 440 400c22.056 0 40 17.944 40 40s-17.944 40-40 40z"/><path d="M408 296c0 17.648 14.352 32 32 32s32-14.352 32-32-14.352-32-32-32-32 14.352-32 32zm48 0c0 8.824-7.176 16-16 16s-16-7.176-16-16 7.176-16 16-16 16 7.176 16 16zM400 240c22.056 0 40-17.944 40-40s-17.944-40-40-40-40 17.944-40 40 17.944 40 40 40zm0-64c13.232 0 24 10.768 24 24s-10.768 24-24 24-24-10.768-24-24 10.768-24 24-24zM112 352c-17.648 0-32 14.352-32 32s14.352 32 32 32 32-14.352 32-32-14.352-32-32-32zm0 48c-8.824 0-16-7.176-16-16s7.176-16 16-16 16 7.176 16 16-7.176 16-16 16zM240 432c0-26.472-21.528-48-48-48s-48 21.528-48 48 21.528 48 48 48 48-21.528 48-48zm-48 32c-17.648 0-32-14.352-32-32s14.352-32 32-32 32 14.352 32 32-14.352 32-32 32z"/></svg>
